<svg version="1.2" xmlns="http://www.w3.org/2000/svg" viewBox="0 0 250 250" width="250" height="250">
	<title>pizza-svg</title>
	<style>
		.s0 { fill: #0d0d0d } 
		.s1 { fill: #7c7c7c } 
		.s2 { fill: #fafafa } 
		.s3 { fill: #757575 } 
		.s4 { fill: #f5f5f5 } 
		.s5 { fill: #f7f7f7 } 
		.s6 { fill: #f8f8f8 } 
		.s7 { fill: #e4e4e4 } 
		.s8 { fill: #f9f9f9 } 
		.s9 { fill: #fcfcfc } 
		.s10 { fill: #7a7a7a } 
		.s11 { fill: #7e7e7e } 
		.s12 { fill: #7f7f7f } 
		.s13 { fill: #747474 } 
		.s14 { fill: #efefef } 
		.s15 { fill: #787878 } 
		.s16 { fill: #7d7d7d } 
		.s17 { fill: #161616 } 
		.s18 { fill: #fbfbfb } 
		.s19 { fill: #e5e5e5 } 
		.s20 { fill: #858585 } 
	</style>
	<g id="Layer">
	</g>
	<g id="Layer">
		<path id="Layer" fill-rule="evenodd" class="s0" d="m122.5 24.5q66 2.1 94.5 61 25.8 73.3-34.5 121.5-57.6 36.9-115 0-6.5-5-12-11 33.3-35.3 66.5-70.5 0.8-50.5 0.5-101z"/>
	</g>
	<g id="Layer">
		<path id="Layer" fill-rule="evenodd" class="s1" d="m130.5 30.5q-1.5 0-3 0 0 8 0 16 2.9-0.4 5 1-3 0-6 0 0-9 0-18 2.4-0.4 4 1z"/>
	</g>
	<g id="Layer">
		<path id="Layer" fill-rule="evenodd" class="s2" d="m130.5 30.5q33.3 1.8 58 24-4.9 7.2-11.5 13-18.7-17.7-44.5-20-2.1-1.4-5-1 0-8 0-16 1.5 0 3 0z"/>
	</g>
	<g id="Layer">
		<path id="Layer" fill-rule="evenodd" class="s3" d="m132.5 52.5q-2.5 0-5 0 0 12 0 24-1.5-11.4-1-25 3.4-0.4 6 1z"/>
	</g>
	<g id="Layer">
		<path id="Layer" fill-rule="evenodd" class="s4" d="m132.5 52.5q19.8 1.8 35 14-10.2-6.5-19.5 1-5.8 10.6 2.5 19.5 2.8 1.5 6 2-14.8 15.8-29.5 31.5-1-14 0-28 9.7 2.8 10.5-7.5-0.6-9.3-10-8.5 0-12 0-24 2.5 0 5 0z"/>
	</g>
	<g id="Layer">
		<path id="Layer" fill-rule="evenodd" class="s5" d="m191.5 58.5q2.8 0.5 4.5 3 23.1 26.1 23.5 61-9 0-18 0 0.5-30.3-21-51.5 6-5.9 11-12.5z"/>
	</g>
	<g id="Layer">
		<path id="Layer" fill-rule="evenodd" class="s6" d="m153.5 66.5q14.2-2 13.5 12-3.3 3.3-6.5 6.5-14.6 1.1-11.5-13.5 2-2.8 4.5-5z"/>
	</g>
	<g id="Layer">
		<path id="Layer" fill-rule="evenodd" class="s7" d="m167.5 66.5q3.6 1.3 6 4.5-1.3 1.3-2.5 2.5-1.4-3.7-3.5-7z"/>
	</g>
	<g id="Layer">
		<path id="Layer" fill-rule="evenodd" class="s8" d="m196.5 116.5q0 2.5 0 5-31.8 0.5-63-1 21.4-23.2 43.5-46 11.8 10.8 16 26-9-8.3-17 1-2.9 16.6 13.5 14.5 4.5-3.2 5.5-8.5 1.9 4.3 1.5 9z"/>
	</g>
	<g id="Layer">
		<path id="Layer" fill-rule="evenodd" class="s9" d="m128.5 79.5q8.5 0.6 5.5 9-2.6 3.2-6 1-1.1-5.1 0.5-10z"/>
	</g>
	<g id="Layer">
		<path id="Layer" fill-rule="evenodd" class="s6" d="m181.5 99.5q12.5-1.3 9.5 11-6 6-12 0-1.8-6.4 2.5-11z"/>
	</g>
	<g id="Layer">
		<path id="Layer" fill-rule="evenodd" class="s10" d="m196.5 116.5q1.4 2.6 1 6-32.5 0.5-65-1 0.2-0.9 1-1 31.2 1.5 63 1 0-2.5 0-5z"/>
	</g>
	<g id="Layer">
		<path id="Layer" fill-rule="evenodd" class="s11" d="m154.5 128.5q-11.2-1.5-23-1 11.4-1.7 25-0.5-0.8 1.1-2 1.5z"/>
	</g>
	<g id="Layer">
		<path id="Layer" fill-rule="evenodd" class="s12" d="m196.5 127.5q-13.3-0.5-26 1-1.2-0.4-2-1.5 14.3-1.2 28 0.5z"/>
	</g>
	<g id="Layer">
		<path id="Layer" fill-rule="evenodd" class="s13" d="m201.5 127.5q9.2-1.5 19-1 0.4 2.4-1 4 0-1.5 0-3-9 0-18 0z"/>
	</g>
	<g id="Layer">
		<path id="Layer" fill-rule="evenodd" class="s8" d="m131.5 127.5q11.8-0.5 23 1-6.8 13.9 8 17 14.8-3.1 8-17 12.7-1.5 26-1-0.2 11.6-5 22-9.5-3.7-10 6.5 0 4.3 3 7.5-2.9 5.2-7.5 9-22.6-22.8-45.5-45z"/>
	</g>
	<g id="Layer">
		<path id="Layer" fill-rule="evenodd" class="s2" d="m201.5 127.5q9 0 18 0 0 1.5 0 3-1.7 34.2-25 59-7.3-6-13-13.5 18.8-20.4 20-48.5z"/>
	</g>
	<g id="Layer">
		<path id="Layer" fill-rule="evenodd" class="s5" d="m158.5 128.5q17-0.8 8 13.5-17.1 1.2-8-13.5z"/>
	</g>
	<g id="Layer">
		<path id="Layer" fill-rule="evenodd" class="s14" d="m126.5 130.5q24.2 21.9 47 45.5-19.7 18.5-47 18.5 0-32 0-64z"/>
	</g>
	<g id="Layer">
		<path id="Layer" fill-rule="evenodd" class="s15" d="m120.5 144.5q2-5 0-10 0.4-1.2 1.5-2 1.2 6.6-0.5 13-0.9-0.2-1-1z"/>
	</g>
	<g id="Layer">
		<path id="Layer" fill-rule="evenodd" class="s8" d="m120.5 134.5q2 5 0 10-6.9-1.4-7 5.5 0.1 6.9 7 5.5 1.5 19.2 1 39-15.3 0.3-29-6.5 13.9-1.6 10.5-15.5-3.7-7.9-12.5-6.5 14.8-16 30-31.5z"/>
	</g>
	<g id="Layer">
		<path id="Layer" fill-rule="evenodd" class="s8" d="m116.5 147.5q2 0 4 0 0 2.5 0 5-2 0-4 0 0-2.5 0-5z"/>
	</g>
	<g id="Layer">
		<path id="Layer" fill-rule="evenodd" class="s14" d="m185.5 151.5q3.2-0.6 5 2-7.3 14.1-5-2z"/>
	</g>
	<g id="Layer">
		<path id="Layer" fill-rule="evenodd" class="s16" d="m120.5 155.5q0.1-0.8 1-1 2 20.2 0 40 0.5-19.8-1-39z"/>
	</g>
	<g id="Layer">
		<path id="Layer" fill-rule="evenodd" class="s17" d="m142.5 161.5q20.5-1.3 17.5 19-5.6 10.9-17.5 7.5-11.3-6-7.5-18.5 3-4.8 7.5-8z"/>
	</g>
	<g id="Layer">
		<path id="Layer" fill-rule="evenodd" class="s18" d="m142.5 164.5q17.2-2.1 14.5 15-4.8 8.6-14.5 5.5-9.9-10.2 0-20.5z"/>
	</g>
	<g id="Layer">
		<path id="Layer" fill-rule="evenodd" class="s6" d="m90.5 169.5q13.2-1 9.5 12-6 6-12 0-1.8-6.8 2.5-12z"/>
	</g>
	<g id="Layer">
		<path id="Layer" fill-rule="evenodd" class="s19" d="m83.5 173.5q1.5 4.8 1.5 10-3.3-2.3-6.5-4.5 2.8-2.6 5-5.5z"/>
	</g>
	<g id="Layer">
		<path id="Layer" fill-rule="evenodd" class="s18" d="m130.5 219.5q-1.5 0-3 0 0-9.5 0-19 3.4 0.4 6-1 25.3-2.5 43.5-20 7.7 6.2 14.5 13.5-25.4 24.7-61 26.5z"/>
	</g>
	<g id="Layer">
		<path id="Layer" fill-rule="evenodd" class="s18" d="m115.5 199.5q2.6 1.4 6 1 0 9.5 0 19-17-0.5-33-6.5-14.3-6.9-27-16 7.3-6.8 13.5-14.5 17.5 14.9 40.5 17z"/>
	</g>
	<g id="Layer">
		<path id="Layer" fill-rule="evenodd" class="s20" d="m115.5 199.5q3.5 0 7 0 0.5 10.3-1 20 0-9.5 0-19-3.4 0.4-6-1z"/>
	</g>
	<g id="Layer">
		<path id="Layer" fill-rule="evenodd" class="s11" d="m133.5 199.5q-2.6 1.4-6 1 0 9.5 0 19 1.5 0 3 0-1.6 1.4-4 1 0-10.5 0-21 3.5 0 7 0z"/>
	</g>
</svg>